# xmcd
#
# Track frame offsets:
#	150
#	22275
#	47918
#	74628
#	104107
#	128540
#	148831
#	171738
#	194249
#	214945
#
# Disc length: 3345 seconds
# Revision: 2
# Processed by: cddbd v1.5.2PL0 Copyright (c) Steve Scherf et al.
# Submitted via: dBpowerAMP V12.0
#
DISCID=b40d0f0a
DTITLE=Tommy Castro and The Painkillers - Killin' It Live
DYEAR=1
DGENRE=Blues
TTITLE0=Make It Back To Memphis
TTITLE1=Can't Keep A Good Man Down
TTITLE2=Leaving Trunk
TTITLE3=Lose Lose
TTITLE4=Calling San Francisco
TTITLE5=Shakin' The Hard Times Loose
TTITLE6=Anytime Soon
TTITLE7=She Wanted To Give It To Me
TTITLE8=Two Hearts
TTITLE9=Them Changes
EXTD=
EXTT0=
EXTT1=
EXTT2=
EXTT3=
EXTT4=
EXTT5=
EXTT6=
EXTT7=
EXTT8=
EXTT9=
PLAYORDER=
